<svg width="100" height="32" viewBox="0 0 100 32" fill="none" xmlns="http://www.w3.org/2000/svg">
<g>
<path d="M4.55718 15.4898C4.10906 15.3134 3.59428 15.204 3.07128 15.204C1.96739 15.204 1.17031 15.91 1.17031 17.1789C1.17031 18.3809 1.81814 19.087 2.9553 19.087C3.2209 19.087 3.45336 19.0533 3.66903 18.9861V17.011H4.74833V19.7172C4.19218 19.944 3.5032 20.0701 2.83073 20.0701C1.05434 20.0701 0 19.0112 0 17.2801C0 15.4981 1.19557 14.2291 3.13784 14.2291C3.69415 14.2291 4.24212 14.3302 4.7236 14.4729L4.55718 15.4898Z" fill="#FFFFFF"/>
<path d="M6.45171 19.9862V15.6159H9.10792V16.4646H7.52263V17.3388H9.03327V18.1625H7.52263V19.1205H9.10792V19.9862H6.45171Z" fill="#FFFFFF"/>
<path d="M15.3115 19.9862L15.0212 17.8851C14.9712 17.5152 14.9294 17.1789 14.9045 16.9269H14.8965C14.8381 17.2044 14.7634 17.5068 14.6805 17.7927L13.9831 19.9862H12.8708L12.2481 17.9607C12.1487 17.6498 12.0492 17.2632 11.9826 16.9436H11.9746C11.9578 17.2714 11.9247 17.591 11.8746 17.9438L11.6172 19.9862H10.5465L11.219 15.6159H12.5636L13.2696 17.8347C13.3441 18.0782 13.4188 18.364 13.4765 18.6582H13.4851C13.5431 18.3473 13.6097 18.1118 13.6929 17.8514L14.4232 15.6159H15.7928L16.4486 19.9862H15.3115Z" fill="#FFFFFF"/>
<path d="M18.0375 19.9862V15.6159H20.694V16.4646H19.1083V17.3388H20.6193V18.1625H19.1083V19.1205H20.694V19.9862H18.0375Z" fill="#FFFFFF"/>
<path d="M22.3726 19.9862V15.6159H25.0291V16.4646H23.4433V17.3388H24.954V18.1625H23.4433V19.1205H25.0291V19.9862H22.3726Z" fill="#FFFFFF"/>
<path d="M29.4221 19.9862L28.1272 17.8514C27.9775 17.6078 27.8282 17.2968 27.7203 17.0528H27.7118C27.7283 17.2632 27.7368 17.4815 27.7368 17.8263V19.9862H26.7075V15.6159H28.1433L29.3968 17.7003C29.5633 17.9607 29.7122 18.238 29.8455 18.5321H29.8536C29.8368 18.2714 29.8288 17.9102 29.8288 17.4565L29.8201 15.6159H30.8583V19.9862H29.4221Z" fill="#FFFFFF"/>
<path d="M34.3444 16.5404V19.9862H33.2731V16.5404H32.1447V15.6159H35.4734V16.5404H34.3444Z" fill="#FFFFFF"/>
<path d="M36.7786 19.9862V15.6159H39.4347V16.4646H37.8489V17.3388H39.3602V18.1625H37.8489V19.1205H39.4347V19.9862H36.7786Z" fill="#FFFFFF"/>
<path d="M74.2083 18.7862C73.4821 18.7862 72.8897 18.5597 72.4481 18.1127C71.855 17.5123 71.5421 16.5154 71.5421 15.2294C71.5421 14.0953 71.8641 13.1697 72.4739 12.5522C72.9429 12.0771 73.569 11.8154 74.2363 11.8154C74.9786 11.8154 75.583 12.0466 76.0332 12.5019C76.6206 13.0966 76.9306 14.0795 76.9306 15.3439C76.9306 17.7092 75.5193 18.7862 74.2083 18.7862ZM74.3771 10.2387C71.6247 10.2387 69.7022 12.3673 69.7022 15.4152C69.7022 17.0662 70.1441 18.3867 70.9799 19.2329C71.7303 19.9927 72.7783 20.3775 74.0952 20.3775C75.3531 20.3775 76.5061 19.9115 77.3421 19.065C78.2769 18.119 78.7709 16.778 78.7709 15.1868C78.7709 13.5397 78.3385 12.2673 77.4852 11.4039C76.7325 10.6416 75.6577 10.2387 74.3771 10.2387Z" fill="#FFFFFF"/>
<path d="M83.3198 15.6251C82.6737 15.3956 82.116 15.1973 82.116 14.7293C82.116 14.5169 82.1813 14.3426 82.311 14.2113C82.5134 14.0061 82.8653 13.9022 83.356 13.9022C83.7818 13.9022 84.3438 13.9887 84.7226 14.1121L84.8488 14.1529L84.8545 14.019L84.9112 12.7038L84.9149 12.6141L84.8275 12.5987C84.3818 12.5207 83.8124 12.4688 83.4123 12.4688C81.4952 12.4688 80.3042 13.4006 80.3042 14.9006C80.3042 16.3645 81.4402 16.7496 82.3527 17.059C83.087 17.3079 83.5372 17.4841 83.5372 17.9452C83.5372 18.64 82.8616 18.8863 82.2828 18.8863C81.7123 18.8863 81.134 18.7849 80.6967 18.6076L80.5641 18.5543L80.5585 18.6987L80.5017 20.0848L80.4984 20.1689L80.5792 20.1887C81.0484 20.3034 81.6503 20.3775 82.1135 20.3775C83.203 20.3775 84.1271 20.0495 84.7154 19.4534C85.1575 19.006 85.3911 18.4252 85.3911 17.7739C85.3911 16.3616 84.2425 15.9535 83.3198 15.6251Z" fill="#FFFFFF"/>
<path d="M89.6452 15.6251C88.999 15.3956 88.4413 15.1973 88.4413 14.7293C88.4413 14.5169 88.5071 14.3426 88.6371 14.2113C88.8392 14.0061 89.1909 13.9022 89.6816 13.9022C90.1073 13.9022 90.6693 13.9887 91.0486 14.1121L91.1741 14.1529L91.1805 14.019L91.2367 12.7038L91.2407 12.6141L91.153 12.5987C90.7072 12.5207 90.1383 12.4688 89.7384 12.4688C87.8208 12.4688 86.6297 13.4006 86.6297 14.9006C86.6297 16.3645 87.7654 16.7496 88.6785 17.059C89.4126 17.3079 89.8625 17.4841 89.8625 17.9452C89.8625 18.64 89.187 18.8863 88.6088 18.8863C88.0379 18.8863 87.4599 18.7849 87.0226 18.6076L86.8899 18.5543L86.8839 18.6987L86.8276 20.0848L86.8245 20.1689L86.905 20.1887C87.3739 20.3034 87.9759 20.3775 88.4393 20.3775C89.5286 20.3775 90.4527 20.0495 91.0413 19.4534C91.4836 19.006 91.7169 18.4252 91.7169 17.7739C91.7169 16.3616 90.5684 15.9535 89.6452 15.6251Z" fill="#FFFFFF"/>
<path d="M33.0891 11.0116C34.309 9.28298 40.0509 4.70707 47.7819 3.69602C47.8082 3.69288 47.5598 3.58721 47.565 3.58721C47.565 3.58721 41.6298 2.73555 35.0954 6.28962C32.6004 7.64691 33.0258 10.9487 33.0258 10.9487C33.0258 10.9487 33.0818 11.0218 33.0891 11.0116Z" fill="#FFFFFF"/>
<path d="M62.8562 1.09438C50.4725 3.92384 47.1643 1.92036 50.6871 0.0988169C50.6849 0.0999932 50.6634 0.010396 50.664 0.000789642C47.4233 1.17221 47.0516 2.12269 48.3323 3.19099L48.793 3.50997C48.8026 3.51565 48.9388 3.4339 48.9489 3.44017C49.3658 3.27784 51.5856 2.55008 53.442 4.51945C53.5245 4.51984 53.6091 4.51984 53.6968 4.51945C57.9237 4.49867 62.7696 1.39042 62.9741 1.25672L62.8562 1.09438Z" fill="#FFFFFF"/>
<path d="M99.9992 24.6392C99.708 24.5029 99.7219 24.5388 99.7289 24.5385C70.286 26.3807 37.8971 22.1671 67.4401 18.5791C67.4198 18.5672 67.2893 18.4761 67.3272 18.4743C63.5903 18.6339 54.0514 18.1235 49.5184 19.8472C48.8538 18.12 49.2899 16.3582 50.3997 14.9819C50.4065 14.9777 50.3211 14.8986 50.3087 14.9047C48.7204 15.6973 46.7459 18.1465 46.8849 20.6947C47.3295 24.1588 53.5179 30.3745 69.3346 32C75.6653 28.2554 94.4592 25.6364 99.9992 24.6392Z" fill="#FFFFFF"/>
<path d="M53.5218 12.9399C51.7483 12.5284 50.4531 10.9559 50.4531 9.03556C50.4531 7.22225 51.6327 5.68773 53.2574 5.17623L53.3122 5.35719C52.8461 6.45293 53.9778 8.07293 53.9778 8.07293C53.9778 8.07293 53.4962 8.57307 53.4077 9.03791C53.2417 9.9131 53.5591 10.7363 53.9381 11.3902C54.3173 12.0446 54.9178 11.8301 55.0597 12.5275C55.2067 13.2502 54.7683 14.116 54.2588 14.3639C53.3087 14.8265 51.5357 14.6248 51.1282 14.5843L51.0955 14.4905C51.0955 14.4905 52.9811 13.6972 53.5341 12.9456L53.5218 12.9399Z" fill="#FFFFFF"/>
</g>
</svg>
